<?xml version="1.0" encoding="UTF-8" standalone="no"?>
<svg xmlns="http://www.w3.org/2000/svg" width="100%" height="100%" viewBox="0 0 24 24">
    <path fill="black" stroke="none" stroke-width="1"
        d="M 11.93,2.54
           C 11.93,2.54 11.57,3.67 11.21,4.3
            10.39,5.4 5.21,6.26 4.78,11.02
            4.66,13.51 6.79,16.1 6.96,17.95
            7.1,19.25 7.06,20.09 5.93,21.22
            6.5,21.38 10.22,20.98 11.14,17.86
            11.71,16.15 10.85,15.48 11.98,13.92
            12.26,15 14.09,15.72 15.48,15.55
            16.42,15.58 16.7,16.49 16.66,17.02
            16.7,17.57 18.7,18 19.63,17.09
            20.33,16.44 21.24,15.96 21.02,15.02
            20.64,14.09 20.16,14.09 19.82,13.46
            19.08,12.19 18.67,8.42 17.52,7.01
            16.73,5.66 15.1,4.61 14.71,3.84
            14.52,3.17 14.52,2.86 14.35,2.18
            14.16,1.99 13.66,3.46 13.3,4.15
            12.84,5.42 12.19,2.23 11.93,2.54" />
</svg>