<?xml version="1.0" encoding="UTF-8" standalone="no"?>
<!DOCTYPE svg PUBLIC "-//W3C//DTD SVG 20010904//EN"
              "http://www.w3.org/TR/2001/REC-SVG-20010904/DTD/svg10.dtd">

<svg xmlns="http://www.w3.org/2000/svg"  width="100%" height="100%" viewBox="0 0 1000 250">
	<circle cx="50" cy="10" r="5" fill="#000000" fill-opacity="0.55" />
	<circle cx="35" cy="25" r="4" fill="#000000" fill-opacity="0.35" />
	<circle cx="20" cy="40" r="3" fill="#000000" fill-opacity="0.45" />
	<circle cx="30" cy="130" r="7" fill="#000000" fill-opacity="0.75" />
	<circle cx="150" cy="10" r="5" fill="#000000" fill-opacity="0.55" />
	<circle cx="140" cy="70" r="3" fill="#000000" fill-opacity="0.25" />
	<circle cx="200" cy="20" r="5" fill="#000000" fill-opacity="0.55" />
	<circle cx="180" cy="150" r="3" fill="#000000" fill-opacity="0.25" />
	<circle cx="220" cy="40" r="7" fill="#000000" fill-opacity="0.75" />
	<circle cx="240" cy="70" r="5" fill="#000000" fill-opacity="0.55" />
	<circle cx="270" cy="50" r="5" fill="#000000" fill-opacity="0.55" />
	<circle cx="260" cy="80" r="3" fill="#000000" fill-opacity="0.25" />
	<circle cx="310" cy="70" r="3" fill="#000000" fill-opacity="0.25" />
	<circle cx="400" cy="50" r="3" fill="#000000" fill-opacity="0.25" />
	<circle cx="450" cy="70" r="5" fill="#000000" fill-opacity="0.55" />
	<circle cx="500" cy="10" r="7" fill="#000000" fill-opacity="0.75" />
	<circle cx="480" cy="100" r="2" fill="#000000" fill-opacity="0.15" />
	<circle cx="610" cy="30" r="2" fill="#000000" fill-opacity="0.15" />
	<circle cx="690" cy="30" r="4" fill="#000000" fill-opacity="0.35" />
	<circle cx="650" cy="110" r="5" fill="#000000" fill-opacity="0.55" />
	<circle cx="850" cy="110" r="4" fill="#000000" fill-opacity="0.35" />
	<circle cx="910" cy="30" r="4" fill="#000000" fill-opacity="0.35" />
	<circle cx="990" cy="150" r="4" fill="#000000" fill-opacity="0.35" />


	<line x1="20" y1="0" x2="20" y2="40" style="stroke:rgba(0,0,0,0.1); stroke-width:1" />
	<line x1="20" y1="40" x2="70" y2="0" style="stroke:rgba(0,0,0,0.1); stroke-width:1" />
	<line x1="50" y1="10" x2="35" y2="25" style="stroke:rgba(0,0,0,0.2); stroke-width:1" />
	<line x1="50" y1="10" x2="200" y2="20" style="stroke:rgba(0,0,0,0.2); stroke-width:1" />
	<line x1="35" y1="25" x2="30" y2="130" style="stroke:rgba(0,0,0,0.2); stroke-width:1" />
	<line x1="30" y1="130" x2="140" y2="70" style="stroke:rgba(0,0,0,0.2); stroke-width:1" />
	<line x1="140" y1="70" x2="120" y2="0" style="stroke:rgba(0,0,0,0.2); stroke-width:1" />
	<line x1="140" y1="70" x2="170" y2="0" style="stroke:rgba(0,0,0,0.2); stroke-width:1" />
	<line x1="140" y1="70" x2="220" y2="40" style="stroke:rgba(0,0,0,0.2); stroke-width:1" />
	<line x1="140" y1="70" x2="260" y2="80" style="stroke:rgba(0,0,0,0.2); stroke-width:1" />
	<line x1="140" y1="70" x2="180" y2="150" style="stroke:rgba(0,0,0,0.2); stroke-width:1" />
	<line x1="35" y1="25" x2="240" y2="70" style="stroke:rgba(0,0,0,0.2); stroke-width:1" />
	<line x1="240" y1="70" x2="210" y2="0" style="stroke:rgba(0,0,0,0.2); stroke-width:1" />
	<line x1="220" y1="40" x2="200" y2="0" style="stroke:rgba(0,0,0,0.3); stroke-width:1" />
	<line x1="220" y1="40" x2="180" y2="0" style="stroke:rgba(0,0,0,0.3); stroke-width:1" />
	<line x1="220" y1="40" x2="240" y2="0" style="stroke:rgba(0,0,0,0.3); stroke-width:1" />
	<line x1="220" y1="40" x2="500" y2="10" style="stroke:rgba(0,0,0,0.3); stroke-width:1" />
	<line x1="200" y1="20" x2="120" y2="0" style="stroke:rgba(0,0,0,0.3); stroke-width:1" />
	<line x1="200" y1="20" x2="220" y2="0" style="stroke:rgba(0,0,0,0.3); stroke-width:1" />
	<line x1="270" y1="50" x2="260" y2="0" style="stroke:rgba(0,0,0,0.3); stroke-width:1" />
	<line x1="270" y1="50" x2="370" y2="0" style="stroke:rgba(0,0,0,0.3); stroke-width:1" />
	<line x1="310" y1="70" x2="370" y2="0" style="stroke:rgba(0,0,0,0.3); stroke-width:1" />
	<line x1="400" y1="50" x2="370" y2="0" style="stroke:rgba(0,0,0,0.3); stroke-width:1" />
	<line x1="400" y1="50" x2="460" y2="0" style="stroke:rgba(0,0,0,0.3); stroke-width:1" />

	<polygon fill="#000000" points="20,0 20,40 70,0" fill-opacity="0.08"/>
	<polygon fill="#000000" points="50,0 200,20 120,0" fill-opacity="0.3"/>
	<polygon fill="#000000" points="70,70 80,120 110,80" fill-opacity="0.2"/>
	<polygon fill="#000000" points="170,0 140,70 260,80 180,0" fill-opacity="0.2"/>
	<polygon fill="#000000" points="140,70 260,80 180,150" fill-opacity="0.1"/>
	<polygon fill="#000000" points="260,80 310,70 180,0" fill-opacity="0.3"/>
	<polygon fill="#000000" points="240,0 220,40 500,10 540,0" fill-opacity="0.3"/>
	<polygon fill="#000000" points="220,40 180,0 240,0" fill-opacity="0.4"/>
	<polygon fill="#000000" points="270,35 450,70 500,10" fill-opacity="0.2"/>
	<polygon fill="#000000" points="400,0 450,70 510,0" fill-opacity="0.2"/>
	<polygon fill="#000000" points="470,0 480,100 520,0" fill-opacity="0.1"/>
	<polygon fill="#000000" points="700,0 610,30 910,30 890,0" fill-opacity="0.3"/>
	<polygon fill="#000000" points="610,30 850,110 910,30" fill-opacity="0.2"/>
	<polygon fill="#000000" points="850,110 910,30 990,150" fill-opacity="0.1"/>
  
</svg>
